<svg width="76" height="75" viewBox="0 0 76 75" fill="none" xmlns="http://www.w3.org/2000/svg">
<path d="M60.4562 38.6043C59.3289 38.6043 58.4086 37.6841 58.4086 36.5568C58.4086 35.418 59.3289 34.5092 60.4562 34.5092C61.5835 34.5092 62.5037 35.4295 62.5037 36.5568C62.5153 37.6841 61.595 38.6043 60.4562 38.6043ZM60.4562 32.5537C58.2476 32.5537 56.4531 34.3482 56.4531 36.5568C56.4531 38.7654 58.2476 40.5599 60.4562 40.5599C62.6648 40.5599 64.4593 38.7654 64.4593 36.5568C64.4593 34.3367 62.6648 32.5537 60.4562 32.5537Z" fill="#E2E4E9"/>
<path d="M42.0742 38.6043C40.9469 38.6043 40.0267 37.6841 40.0267 36.5568C40.0267 35.418 40.9469 34.5092 42.0742 34.5092C43.2015 34.5092 44.1218 35.4295 44.1218 36.5568C44.1218 37.6841 43.2015 38.6043 42.0742 38.6043ZM42.0742 32.5537C39.8656 32.5537 38.0712 34.3482 38.0712 36.5568C38.0712 38.7654 39.8656 40.5599 42.0742 40.5599C44.2828 40.5599 46.0773 38.7654 46.0773 36.5568C46.0658 34.3367 44.2828 32.5537 42.0742 32.5537Z" fill="#E2E4E9"/>
<path d="M56.2001 38.7189C55.947 38.788 55.5559 38.8685 55.4179 38.8685C54.7277 38.8685 54.5896 38.6269 54.5896 37.9827V34.2787H56.2231V32.7373H54.5896V30.5518H52.7492L52.358 32.7373H51.0812H50.9777C49.9309 32.7373 49.1372 33.3815 48.6311 34.3823L47.9984 32.7373H46.6755V40.4099H48.9301V37.074C48.9301 35.3945 49.9309 34.3133 51.1042 34.2787H52.335V38.0978C52.335 39.8922 53.2553 40.5594 54.7507 40.5594C55.5214 40.5594 56.1195 40.3984 56.4761 40.2834L56.2001 38.7189Z" fill="#E2E4E9"/>
<path d="M67.197 35.1537V40.4106H64.9999V32.7266H66.3342L66.7828 33.8999" fill="#E2E4E9"/>
<path d="M66.7714 33.9111C67.4385 33.1404 68.3473 32.5537 69.4171 32.5537C71.2461 32.5537 71.9938 34.0146 71.9938 35.3605V40.4103H69.7392V35.4295C69.7392 34.7738 69.187 34.4172 68.6004 34.4172C67.9677 34.4172 67.5651 34.7853 67.2085 35.1649" fill="#E2E4E9"/>
<path d="M29.3174 29.9541H31.8366L35.2875 36.5224V29.9541H37.3695V40.4104H35.0919L31.3994 33.175V40.4104H29.3174V29.9541Z" fill="#E2E4E9"/>
<path d="M71.9938 32.7373V32.8868H72.2008V33.6115H72.3734V32.8868H72.5919V32.7373H71.9938Z" fill="#E2E4E9"/>
<path d="M73.2476 32.7373L73.098 33.3125L72.937 32.7373H72.7069V33.6115H72.8565V32.9214L73.0405 33.6115H73.1555L73.3396 32.9214V33.6115H73.4776V32.7373H73.2476Z" fill="#E2E4E9"/>
<path d="M32.0436 46.5758C32.0436 45.9087 31.8365 45.1264 31.0773 45.1264C30.7207 45.1264 30.3986 45.2875 30.111 45.5866V47.7837C30.3756 48.0712 30.6172 48.2208 30.9853 48.2208C31.664 48.2093 32.0436 47.6226 32.0436 46.5758ZM29.9615 48.2093L29.8005 48.7039H29.3864V42.9639H30.111V45.0574C30.3526 44.7929 30.7437 44.5168 31.2383 44.5168C32.3311 44.5168 32.8143 45.5981 32.8143 46.5758C32.8143 47.8872 32.1356 48.7729 31.1233 48.7729C30.5942 48.7729 30.2376 48.5544 29.9615 48.2093Z" fill="#A0A0A0"/>
<path d="M33.2744 44.5977H34.0106C34.0106 44.5977 35.0459 48.0601 35.0459 48.0716L36.0121 44.5977H36.7253L35.345 49.0148C35.1034 49.774 34.7008 50.1997 33.9071 50.1997C33.746 50.1997 33.5735 50.1766 33.4125 50.1306L33.5045 49.613C33.608 49.6245 33.7115 49.659 33.8496 49.659C34.2752 49.659 34.5973 49.4635 34.7583 48.9573L33.2744 44.5977Z" fill="#A0A0A0"/>
<path d="M38.8765 48.1058L39.2331 47.5996C39.5897 47.8642 40.0958 48.1518 40.855 48.1518C41.6027 48.1518 42.0398 47.7952 42.0398 47.174C42.0398 46.4838 41.5107 46.2653 40.7515 46.0007C39.9347 45.7131 39.187 45.345 39.187 44.2982C39.187 43.3665 39.9232 42.8604 40.8895 42.8604C41.5797 42.8604 41.9823 42.9754 42.4309 43.2284L42.1318 43.7806C41.7752 43.585 41.3956 43.47 40.878 43.47C40.2683 43.47 39.8542 43.7116 39.8542 44.2867C39.8542 44.8964 40.2568 45.0919 41.0966 45.391C41.9018 45.6671 42.753 46.0237 42.753 47.151C42.753 48.1518 42.0398 48.7499 40.8665 48.7499C39.9117 48.7729 39.2561 48.4278 38.8765 48.1058Z" fill="#A0A0A0"/>
<path d="M43.1671 44.5977H43.9033C43.9033 44.5977 44.9386 48.0601 44.9386 48.0716L45.9048 44.5977H46.618L45.2377 49.0148C44.9961 49.774 44.5935 50.1997 43.7998 50.1997C43.6387 50.1997 43.4662 50.1766 43.3052 50.1306L43.3972 49.613C43.5007 49.6245 43.6042 49.659 43.7423 49.659C44.1679 49.659 44.49 49.4635 44.651 48.9573L43.1671 44.5977Z" fill="#A0A0A0"/>
<path d="M51.7139 44.5166C52.5421 44.5166 52.7607 45.2183 52.7607 45.897V48.7037H52.036V45.897C52.036 45.4944 51.967 45.1263 51.4723 45.1263C51.1387 45.1263 50.7821 45.3333 50.4255 45.6899V48.7037H49.7008V45.897C49.7008 45.4944 49.6318 45.1263 49.1372 45.1263C48.7921 45.1263 48.424 45.3678 48.0904 45.7014V48.7037H47.3657V44.5971H47.7913L47.9754 45.2643C48.355 44.8502 48.8151 44.5166 49.3673 44.5166C49.9194 44.5166 50.1495 44.8157 50.3105 45.2298C50.6901 44.8042 51.1847 44.5166 51.7139 44.5166Z" fill="#A0A0A0"/>
<path d="M56.108 46.5872C55.2913 46.7367 54.7622 46.9092 54.5551 47.1623C54.4516 47.2889 54.4286 47.4039 54.4286 47.5764C54.4286 47.979 54.6241 48.2091 55.0613 48.2091C55.4754 48.2091 55.8435 48.002 56.108 47.8065V46.5872ZM56.108 45.9315C56.108 45.3793 55.9355 45.1033 55.3373 45.1033C54.9232 45.1033 54.5551 45.2643 54.164 45.4599L53.8994 44.9767C54.3251 44.7122 54.7852 44.5166 55.3833 44.5166C56.4071 44.5166 56.8097 45.0687 56.8097 45.989V48.7152H56.3956L56.2116 48.2206C55.924 48.5082 55.4754 48.7728 54.9462 48.7728C54.2215 48.7728 53.6924 48.3241 53.6924 47.6339C53.6924 47.1853 53.8649 46.8632 54.2445 46.6332C54.6126 46.4031 55.2683 46.2421 56.108 46.1155V45.9315V45.9315Z" fill="#A0A0A0"/>
<path d="M58.0176 44.5971H58.4432L58.6272 45.2758C59.0068 44.8502 59.49 44.5166 60.0996 44.5166C60.9854 44.5166 61.2154 45.2183 61.2154 45.897V48.7037H60.4907V45.897C60.4907 45.4944 60.3872 45.1263 59.8581 45.1263C59.4785 45.1263 59.0759 45.3678 58.7423 45.7129V48.7037H58.0176V44.5971V44.5971Z" fill="#A0A0A0"/>
<path d="M61.9861 45.1033V44.5971H62.6188L62.8028 43.4238H63.3204V44.5971H64.2407V45.1033H63.3204V47.634C63.3204 48.0136 63.3895 48.2206 63.7806 48.2206C63.9416 48.2206 64.0681 48.1861 64.2522 48.1401L64.3557 48.6347C64.1947 48.7037 63.9416 48.7613 63.6885 48.7613C62.9408 48.7613 62.6072 48.4047 62.6072 47.6685V45.0918H61.9861V45.1033Z" fill="#A0A0A0"/>
<path d="M67.4615 46.3686C67.4385 45.5059 67.1509 45.0572 66.5757 45.0572C66.0581 45.0572 65.713 45.4599 65.6555 46.3686H67.4615ZM66.6793 48.1976C67.1509 48.1976 67.45 48.0135 67.7951 47.795L68.0942 48.2321C67.6916 48.5542 67.3234 48.7728 66.6103 48.7728C65.552 48.7728 64.8733 47.956 64.8733 46.6562C64.8733 45.3908 65.529 44.5166 66.5527 44.5166C67.611 44.5166 68.1747 45.3103 68.1747 46.6792V46.8517H65.621C65.6785 47.726 65.9891 48.1976 66.6793 48.1976Z" fill="#A0A0A0"/>
<path d="M68.8419 46.6792C68.8419 45.6209 69.3135 44.5166 70.5789 44.5166C71.108 44.5166 71.4991 44.6431 71.8672 44.9537L71.5566 45.4368C71.2921 45.2413 70.9815 45.1033 70.5904 45.1033C69.7277 45.1033 69.6011 45.989 69.6011 46.6907C69.6011 47.3694 69.7507 48.1976 70.6134 48.1976C71.0275 48.1976 71.3151 48.0365 71.5912 47.8065L71.9362 48.2321C71.6372 48.5312 71.2231 48.7842 70.5789 48.7842C69.325 48.7727 68.8419 47.703 68.8419 46.6792Z" fill="#A0A0A0"/>
<path d="M13.7307 31.1966C11.5451 31.1966 9.48607 32.0478 7.93316 33.6008C6.38024 35.1537 5.52902 37.2127 5.52902 39.3983C5.52902 41.5839 6.38024 43.6429 7.93316 45.1959C9.48607 46.7488 11.5451 47.6 13.7307 47.6C15.9163 47.6 17.9753 46.7488 19.5283 45.1959C21.0697 43.6429 21.9209 41.5839 21.9324 39.3983C21.9324 37.2127 21.0812 35.1537 19.5283 33.6008C17.9753 32.0593 15.9163 31.1966 13.7307 31.1966ZM13.7307 51.3845C7.12794 51.3845 1.74451 46.0011 1.74451 39.3983C1.74451 32.784 7.12794 27.4121 13.7307 27.4121C20.3335 27.4121 25.7169 32.784 25.7169 39.3983C25.7169 46.0011 20.3335 51.3845 13.7307 51.3845Z" fill="#FFC20E"/>
<path d="M27.7185 25.5596H26.7867V26.4913H27.7185V25.5596Z" fill="#FFC20E"/>
<path d="M27.7185 23.6963H26.7867V24.628H27.7185V23.6963Z" fill="#FFC20E"/>
<path d="M25.0383 26.4912H24.1641V27.4H25.0383V26.4912Z" fill="white"/>
<path d="M23.3127 28.2861H22.427V29.1604H23.3127V28.2861Z" fill="#E2E4E9"/>
<path d="M26.0045 27.4004H25.0267V28.2746H26.0045V27.4004Z" fill="#E2E4E9"/>
<path d="M22.4271 27.4463H21.5529V28.286H22.4271V27.4463Z" fill="#E2E4E9"/>
<path d="M25.0383 28.2861H24.1641V29.1604H25.0383V28.2861Z" fill="#E2E4E9"/>
<path d="M26.7867 24.6396H25.8665V25.5714H26.7867V24.6396Z" fill="#E2E4E9"/>
<path d="M25.8665 25.5596H24.1641V26.4913H25.8665V25.5596Z" fill="#E2E4E9"/>
<path d="M24.164 26.4912H23.3127V28.2857H24.164V26.4912Z" fill="#E2E4E9"/>
<path d="M23.3128 29.1602V30.0344H22.4271V29.1602H20.9662V29.7928H20.184V30.575H21.0582V31.4493H20.184V30.575H19.2522V31.9439H18.378V32.8181H17.7913V33.6924H17.1472C16.4225 34.7621 14.628 38.098 14.0758 39.4554C12.1088 36.7177 10.5789 35.6364 9.38258 35.2453C8.73841 35.0497 7.9562 35.7514 9.02598 36.8672C11.4991 39.5934 12.2814 41.8365 13.0291 43.6425C13.4317 44.5858 15.2146 44.7353 15.5712 43.7691C16.3304 41.733 17.4347 39.4324 18.7461 37.5574V36.5796H19.4478V35.7054H20.184V34.6816H21.0582V33.7039H20.1725V32.8066H21.0582V33.7039H21.9209V32.8181H22.6111V31.7483H23.3933V31.0122H24.141V29.1602H23.3128V29.1602Z" fill="#E2E4E9"/>
</svg>
