<svg width="82" height="21" viewBox="0 0 82 21" fill="none" xmlns="http://www.w3.org/2000/svg">
<path fill-rule="evenodd" clip-rule="evenodd" d="M7.23606 5.28809H12.7774C15.7527 5.28809 16.8727 6.85906 16.6996 9.16703C16.4135 12.9773 14.205 15.0854 11.2755 15.0854H9.79648C9.39454 15.0854 9.12419 15.3629 9.01548 16.1148L8.38753 20.4861C8.34605 20.7695 8.20301 20.9336 7.98845 20.956H4.50684C4.17928 20.956 4.06342 20.6949 4.14924 20.1295L6.27197 6.11609C6.35493 5.55514 6.64959 5.28809 7.23606 5.28809Z" fill="#009EE3"/>
<path fill-rule="evenodd" clip-rule="evenodd" d="M31.2939 5.02734C33.1635 5.02734 34.8885 6.08514 34.6525 8.72142C34.3664 11.8545 32.7572 13.5882 30.2183 13.5956H27.9997C27.6807 13.5956 27.5262 13.8672 27.4433 14.4237L27.0141 17.2688C26.9498 17.6985 26.7381 17.9103 26.4262 17.9103H24.3622C24.0332 17.9103 23.9187 17.691 23.9917 17.2002L25.6953 5.79719C25.7797 5.23622 25.9814 5.02734 26.349 5.02734H31.2896H31.2939ZM27.9325 11.1324H29.6132C30.6645 11.0906 31.3626 10.3312 31.4327 8.96162C31.4756 8.11568 30.9277 7.50995 30.0566 7.51442L28.4746 7.52189L27.9325 11.1324ZM40.264 17.0376C40.4528 16.8585 40.6445 16.766 40.6173 16.9868L40.5501 17.515C40.5158 17.791 40.6202 17.9372 40.8662 17.9372H42.7C43.009 17.9372 43.1592 17.8074 43.235 17.3091L44.365 9.91199C44.4222 9.5405 44.335 9.35848 44.0646 9.35848H42.0477C41.8661 9.35848 41.7774 9.46441 41.7302 9.75384L41.6558 10.2089C41.6172 10.4461 41.5128 10.4879 41.4155 10.2492C41.0736 9.40473 40.2011 9.02577 38.9838 9.05561C36.1559 9.11678 34.2491 11.3562 34.0446 14.2267C33.8872 16.4467 35.4121 18.1908 37.4232 18.1908C38.8822 18.1908 39.5345 17.7432 40.2697 17.042L40.264 17.0376ZM38.7278 15.8992C37.5105 15.8992 36.6622 14.8862 36.8382 13.6449C37.0141 12.4036 38.1527 11.3905 39.37 11.3905C40.5873 11.3905 41.4355 12.4036 41.2596 13.6449C41.0836 14.8862 39.9465 15.8992 38.7278 15.8992ZM47.9539 9.33461H46.0944C45.711 9.33461 45.5551 9.633 45.6767 10L47.9854 17.051L45.721 20.4064C45.5308 20.6869 45.6781 20.942 45.9456 20.942H48.0354C48.1572 20.9567 48.2805 20.9345 48.3906 20.8782C48.5006 20.8218 48.5928 20.7337 48.6562 20.6242L55.7568 10.0015C55.9756 9.67477 55.8726 9.33162 55.5136 9.33162H53.5353C53.1963 9.33162 53.0604 9.47187 52.8659 9.76578L49.905 14.2416L48.5818 9.75534C48.5046 9.4838 48.3115 9.33461 47.9553 9.33461H47.9539Z" fill="#113984"/>
<path fill-rule="evenodd" clip-rule="evenodd" d="M63.1434 5.0274C65.013 5.0274 66.7381 6.08521 66.502 8.72151C66.216 11.8546 64.6067 13.5883 62.0678 13.5958H59.8506C59.5317 13.5958 59.3772 13.8673 59.2942 14.4238L58.8651 17.269C58.8007 17.6987 58.589 17.9105 58.2772 17.9105H56.2131C55.8841 17.9105 55.7697 17.6912 55.8426 17.2003L57.5491 5.79427C57.6335 5.23329 57.8352 5.02441 58.2028 5.02441H63.1434V5.0274ZM59.782 11.1325H61.4627C62.5141 11.0907 63.2121 10.3313 63.2822 8.96171C63.3251 8.11577 62.7773 7.51003 61.9061 7.5145L60.3241 7.52197L59.782 11.1325V11.1325ZM72.1135 17.0377C72.3023 16.8587 72.494 16.7662 72.4668 16.987L72.3996 17.5151C72.3653 17.7912 72.4697 17.9374 72.7157 17.9374H74.5495C74.8585 17.9374 75.0087 17.8076 75.0845 17.3093L76.2145 9.91209C76.2717 9.54059 76.1845 9.35857 75.9141 9.35857H73.9001C73.7184 9.35857 73.6298 9.4645 73.5826 9.75394L73.5082 10.209C73.4696 10.4462 73.3651 10.488 73.2679 10.2493C72.926 9.40483 72.0535 9.02587 70.8362 9.05571C68.0083 9.11688 66.1015 11.3563 65.897 14.2269C65.7396 16.4469 67.2644 18.191 69.2756 18.191C70.7346 18.191 71.3869 17.7434 72.1221 17.0422L72.1135 17.0377ZM70.5787 15.8993C69.3614 15.8993 68.5132 14.8863 68.6891 13.645C68.8651 12.4037 70.0037 11.3906 71.221 11.3906C72.4382 11.3906 73.2865 12.4037 73.1105 13.645C72.9346 14.8863 71.796 15.8993 70.5787 15.8993ZM79.0367 17.9493H76.9197C76.8829 17.951 76.8461 17.9442 76.8121 17.9294C76.7781 17.9146 76.7476 17.8922 76.7229 17.8637C76.6982 17.8352 76.6798 17.8013 76.669 17.7645C76.6583 17.7278 76.6555 17.689 76.6608 17.6509L78.5203 5.36309C78.5381 5.27923 78.5825 5.2041 78.6464 5.14993C78.7103 5.09575 78.7899 5.06571 78.8722 5.0647H80.9892C81.026 5.06298 81.0628 5.06977 81.0968 5.08457C81.1308 5.09937 81.1613 5.12183 81.186 5.15034C81.2107 5.17884 81.2291 5.21269 81.2399 5.24947C81.2506 5.28625 81.2534 5.32505 81.2481 5.36309L79.3886 17.6509C79.3714 17.7353 79.3272 17.8111 79.2633 17.8659C79.1993 17.9207 79.1194 17.9511 79.0367 17.9523V17.9493Z" fill="#009EE3"/>
<path fill-rule="evenodd" clip-rule="evenodd" d="M3.77075 0.463867H9.31787C10.8799 0.463867 12.7337 0.516086 13.9724 1.65744C14.8006 2.41983 15.2355 3.6328 15.1353 4.93976C14.7949 9.35746 12.2616 11.8326 8.863 11.8326H6.12806C5.66175 11.8326 5.35421 12.1549 5.22261 13.0262L4.45877 18.0989C4.40871 18.4271 4.27282 18.6211 4.02965 18.6449H0.606691C0.227633 18.6449 0.0931738 18.3465 0.191872 17.6871L2.65217 1.42767C2.75087 0.774194 3.0956 0.463867 3.77075 0.463867Z" fill="#113984"/>
<path fill-rule="evenodd" clip-rule="evenodd" d="M5.302 12.5116L6.27039 6.11566C6.35478 5.55469 6.64945 5.28613 7.23592 5.28613H12.7773C13.6942 5.28613 14.4366 5.43533 15.0173 5.71134C14.4609 9.64409 12.0221 11.8283 8.82939 11.8283H6.09874C5.73256 11.8298 5.46364 12.0208 5.302 12.5116Z" fill="#172C70"/>
</svg>
