<svg width="57" height="23" viewBox="0 0 57 23" fill="none" xmlns="http://www.w3.org/2000/svg">
<g clip-path="url(#clip0_12_108)">
<path d="M4.09595 9.14572C4.09595 8.59032 4.59595 8.3767 5.42407 8.3767C6.61157 8.3767 8.11157 8.70425 9.29907 9.28814V5.94145C8.0022 5.47149 6.72095 5.28636 5.42407 5.28636C2.2522 5.28636 0.142822 6.79592 0.142822 9.31662C0.142822 13.2472 6.08032 12.6206 6.08032 14.3153C6.08032 14.9704 5.45532 15.184 4.58032 15.184C3.28345 15.184 1.6272 14.6998 0.314697 14.0447V17.4341C1.76782 18.0038 3.23657 18.2459 4.58032 18.2459C7.83032 18.2459 10.0647 16.779 10.0647 14.2298C10.0491 9.98596 4.09595 10.7407 4.09595 9.14572ZM14.6584 2.43811L10.8459 3.17866L10.8303 14.5859C10.8303 16.6936 12.5647 18.2459 14.8772 18.2459C16.1584 18.2459 17.0959 18.0322 17.6116 17.7759V14.8849C17.1116 15.0701 14.6428 15.7252 14.6428 13.6175V8.56183H17.6116V5.52846H14.6428L14.6584 2.43811ZM22.4709 6.58231L22.2209 5.52846H18.8459V17.9895H22.7522V9.54448C23.6741 8.4479 25.2366 8.64728 25.7209 8.80393V5.52846C25.2209 5.35756 23.3928 5.04425 22.4709 6.58231ZM26.6741 5.52846H30.5959V17.9895H26.6741V5.52846ZM26.6741 4.44612L30.5959 3.6771V0.786133L26.6741 1.54092V4.44612ZM38.7522 5.28636C37.2209 5.28636 36.2366 5.94145 35.6897 6.39717L35.4866 5.51421H32.0491V22.1195L35.9553 21.3647L35.9709 17.3344C36.5334 17.7047 37.3616 18.2316 38.7366 18.2316C41.5334 18.2316 44.0803 16.1809 44.0803 11.6664C44.0647 7.53647 41.4866 5.28636 38.7522 5.28636ZM37.8147 15.0985C36.8928 15.0985 36.3459 14.7995 35.9709 14.4292L35.9553 9.14572C36.3616 8.73273 36.9241 8.4479 37.8147 8.4479C39.2366 8.4479 40.2209 9.90051 40.2209 11.7661C40.2209 13.6744 39.2522 15.0985 37.8147 15.0985ZM56.3928 11.8088C56.3928 8.16308 54.4553 5.28636 50.7522 5.28636C47.0334 5.28636 44.7834 8.16308 44.7834 11.7803C44.7834 16.067 47.4397 18.2316 51.2522 18.2316C53.1116 18.2316 54.5178 17.8471 55.5803 17.3059V14.4577C54.5178 14.9419 53.2991 15.241 51.7522 15.241C50.2366 15.241 48.8928 14.7568 48.7209 13.0763H56.3616C56.3616 12.8912 56.3928 12.1506 56.3928 11.8088ZM48.6741 10.4559C48.6741 8.84666 49.7522 8.17732 50.7366 8.17732C51.6897 8.17732 52.7053 8.84666 52.7053 10.4559H48.6741Z" fill="#6772E5"/>
</g>
<defs>
<clipPath id="clip0_12_108">
<rect width="56.25" height="21.4286" fill="white" transform="translate(0.142822 0.786133)"/>
</clipPath>
</defs>
</svg>
